<mxfile host="app.diagrams.net" modified="2023-10-09T17:35:19.017Z" agent="Mozilla/5.0 (Windows NT 10.0; Win64; x64) AppleWebKit/537.36 (KHTML, like Gecko) Chrome/117.0.0.0 Safari/537.36 Edg/117.0.2045.60" etag="erhe8FVWuZUBTCTRHi7C" version="22.0.4" type="google">
  <diagram id="HGDzbIgZ1y5eRlc3e9yX" name="PÃ¡gina-1">
    <mxGraphModel grid="1" page="0" gridSize="10" guides="1" tooltips="1" connect="0" arrows="1" fold="1" pageScale="1" pageWidth="827" pageHeight="1169" background="none" math="0" shadow="0">
      <root>
        <mxCell id="0" />
        <mxCell id="1" parent="0" />
        <mxCell id="aM2yHVIO1wzhIdyGh7mq-5" style="edgeStyle=orthogonalEdgeStyle;rounded=0;orthogonalLoop=1;jettySize=auto;html=1;entryX=1;entryY=0.5;entryDx=0;entryDy=0;endArrow=none;endFill=0;" edge="1" parent="1" target="g6PvZ-EG8fzVIG0fZ7ue-3">
          <mxGeometry relative="1" as="geometry">
            <mxPoint x="680" y="390" as="sourcePoint" />
            <Array as="points">
              <mxPoint x="680" y="366" />
              <mxPoint x="680" y="366" />
              <mxPoint x="680" y="520" />
              <mxPoint x="600" y="520" />
            </Array>
          </mxGeometry>
        </mxCell>
        <mxCell id="g6PvZ-EG8fzVIG0fZ7ue-1" value="&lt;p style=&quot;margin:0px;margin-top:4px;text-align:center;&quot;&gt;&lt;b&gt;Aluno&lt;/b&gt;&lt;/p&gt;&lt;hr size=&quot;1&quot;&gt;&lt;p style=&quot;margin:0 0 0 4px;line-height:1.6;&quot;&gt;- disciplinas: List&amp;lt;Disciplina&amp;gt;&lt;br&gt;- matricula: int&lt;/p&gt;&lt;hr size=&quot;1&quot;&gt;&lt;p style=&quot;margin:0 0 0 4px;line-height:1.6;&quot;&gt;+ imprimir(): void&lt;/p&gt;" style="verticalAlign=top;align=left;overflow=fill;fontSize=14;fontFamily=Helvetica;html=1;rounded=0;shadow=0;comic=0;labelBackgroundColor=none;strokeWidth=1;" vertex="1" parent="1">
          <mxGeometry x="580" y="240" width="199" height="126" as="geometry" />
        </mxCell>
        <mxCell id="g6PvZ-EG8fzVIG0fZ7ue-2" value="&lt;p style=&quot;margin:0px;margin-top:4px;text-align:center;&quot;&gt;&lt;b&gt;Curso&lt;/b&gt;&lt;/p&gt;&lt;hr size=&quot;1&quot;&gt;&lt;p style=&quot;margin:0 0 0 4px;line-height:1.6;&quot;&gt;- codCurso: int&lt;br&gt;~ professores: List&amp;lt;Professor&amp;gt;&lt;br&gt;- descricao: String&lt;br&gt;~ alunos: List&amp;lt;Aluno&amp;gt;&lt;br&gt;- duracao: String&lt;br&gt;~ sc: Scanner&lt;br&gt;- nome: String&lt;br&gt;~ disciplinas: List&amp;lt;Disciplina&amp;gt;&lt;/p&gt;&lt;hr size=&quot;1&quot;&gt;&lt;p style=&quot;margin:0 0 0 4px;line-height:1.6;&quot;&gt;+ trocarDeProfessorDeUmaDisciplina(): void&lt;br&gt;+ imprimirListaDeDisciplinas(): void&lt;br&gt;+ cadastrarPessoa(): Pessoa&lt;br&gt;+ excluirAluno(): void&lt;br&gt;+ imprimirDisciplina(): void&lt;br&gt;+ removerAlunoDeUmaDisciplina(): void&lt;br&gt;+ imprimir(): void&lt;br&gt;+ cadastrarAluno(): void&lt;br&gt;+ imprimirListaDeAlunos(): void&lt;br&gt;+ imprimirAluno(): void&lt;br&gt;+ cadastrarAlunoAUmaDisciplina(): void&lt;br&gt;+ excluirDisciplina(): void&lt;br&gt;+ imprimirListaDeProfessores(): void&lt;br&gt;+ imprimirProfessor(): void&lt;br&gt;+ excluirProfessor(): void&lt;br&gt;+ cadastrarProfessor(): void&lt;br&gt;+ cadastrarDisciplina(): void&lt;/p&gt;" style="verticalAlign=top;align=left;overflow=fill;fontSize=14;fontFamily=Helvetica;html=1;rounded=0;shadow=0;comic=0;labelBackgroundColor=none;strokeWidth=1;" vertex="1" parent="1">
          <mxGeometry x="840" y="-40" width="320" height="610" as="geometry" />
        </mxCell>
        <mxCell id="aM2yHVIO1wzhIdyGh7mq-8" style="edgeStyle=orthogonalEdgeStyle;rounded=0;orthogonalLoop=1;jettySize=auto;html=1;exitX=0.5;exitY=1;exitDx=0;exitDy=0;entryX=0.5;entryY=1;entryDx=0;entryDy=0;endArrow=none;endFill=0;" edge="1" parent="1" source="g6PvZ-EG8fzVIG0fZ7ue-3" target="g6PvZ-EG8fzVIG0fZ7ue-2">
          <mxGeometry relative="1" as="geometry">
            <Array as="points">
              <mxPoint x="520" y="594" />
              <mxPoint x="520" y="640" />
              <mxPoint x="1000" y="640" />
              <mxPoint x="1000" y="570" />
            </Array>
          </mxGeometry>
        </mxCell>
        <mxCell id="g6PvZ-EG8fzVIG0fZ7ue-3" value="&lt;p style=&quot;margin:0px;margin-top:4px;text-align:center;&quot;&gt;&lt;b&gt;Disciplina&lt;/b&gt;&lt;/p&gt;&lt;hr size=&quot;1&quot;&gt;&lt;p style=&quot;margin:0 0 0 4px;line-height:1.6;&quot;&gt;- alunos: List&amp;lt;Aluno&amp;gt;&lt;br&gt;- nome: String&lt;br&gt;- CH: String&lt;br&gt;- professor: Professor&lt;/p&gt;&lt;hr size=&quot;1&quot;&gt;&lt;p style=&quot;margin:0 0 0 4px;line-height:1.6;&quot;&gt;+ imprimir(): void&lt;/p&gt;" style="verticalAlign=top;align=left;overflow=fill;fontSize=14;fontFamily=Helvetica;html=1;rounded=0;shadow=0;comic=0;labelBackgroundColor=none;strokeWidth=1;" vertex="1" parent="1">
          <mxGeometry x="440" y="440" width="160" height="166" as="geometry" />
        </mxCell>
        <mxCell id="g6PvZ-EG8fzVIG0fZ7ue-4" value="&lt;p style=&quot;margin:0px;margin-top:4px;text-align:center;&quot;&gt;&lt;b&gt;Main&lt;/b&gt;&lt;/p&gt;&lt;hr size=&quot;1&quot;/&gt;&lt;p style=&quot;margin:0 0 0 4px;line-height:1.6;&quot;&gt;~ cursos: List&amp;lt;Curso&amp;gt;&lt;/p&gt;&lt;hr size=&quot;1&quot;/&gt;&lt;p style=&quot;margin:0 0 0 4px;line-height:1.6;&quot;&gt;+ main(String[]): void&lt;br/&gt;+ opcoesCurso(Scanner): void&lt;br/&gt;+ cadastrarCurso(Scanner): void&lt;br/&gt;+ menuOpcoesCurso(Curso, Scanner): void&lt;br/&gt;+ listarTodosOsCursos(): void&lt;br/&gt;+ excluirCurso(Scanner): void&lt;br/&gt;+ listarUmCurso(Scanner): void&lt;/p&gt;" style="verticalAlign=top;align=left;overflow=fill;fontSize=14;fontFamily=Helvetica;html=1;rounded=0;shadow=0;comic=0;labelBackgroundColor=none;strokeWidth=1;" vertex="1" parent="1">
          <mxGeometry x="1200" y="120" width="304" height="232" as="geometry" />
        </mxCell>
        <mxCell id="g6PvZ-EG8fzVIG0fZ7ue-5" value="&lt;p style=&quot;margin:0px;margin-top:4px;text-align:center;&quot;&gt;&lt;b&gt;Pessoa&lt;/b&gt;&lt;/p&gt;&lt;hr size=&quot;1&quot;&gt;&lt;p style=&quot;margin:0 0 0 4px;line-height:1.6;&quot;&gt;~ telefone: String&lt;br&gt;~ sexo: String&lt;br&gt;~ endereco: String&lt;br&gt;~ cpf: String&lt;br&gt;~ nome: String&lt;br&gt;~ identidade: String&lt;/p&gt;&lt;hr size=&quot;1&quot;&gt;&lt;p style=&quot;margin:0 0 0 4px;line-height:1.6;&quot;&gt;+ imprimir(): void&lt;br&gt;&lt;br&gt;&lt;/p&gt;" style="verticalAlign=top;align=left;overflow=fill;fontSize=14;fontFamily=Helvetica;html=1;rounded=0;shadow=0;comic=0;labelBackgroundColor=none;strokeWidth=1;" vertex="1" parent="1">
          <mxGeometry x="400" y="-86" width="240" height="206" as="geometry" />
        </mxCell>
        <mxCell id="aM2yHVIO1wzhIdyGh7mq-6" style="edgeStyle=orthogonalEdgeStyle;rounded=0;orthogonalLoop=1;jettySize=auto;html=1;exitX=0.5;exitY=1;exitDx=0;exitDy=0;entryX=0;entryY=0.5;entryDx=0;entryDy=0;endArrow=none;endFill=0;" edge="1" parent="1" source="g6PvZ-EG8fzVIG0fZ7ue-6" target="g6PvZ-EG8fzVIG0fZ7ue-3">
          <mxGeometry relative="1" as="geometry">
            <Array as="points">
              <mxPoint x="360" y="386" />
              <mxPoint x="360" y="520" />
              <mxPoint x="440" y="520" />
            </Array>
          </mxGeometry>
        </mxCell>
        <mxCell id="aM2yHVIO1wzhIdyGh7mq-7" style="edgeStyle=orthogonalEdgeStyle;rounded=0;orthogonalLoop=1;jettySize=auto;html=1;exitX=0;exitY=0.5;exitDx=0;exitDy=0;endArrow=none;endFill=0;" edge="1" parent="1" source="g6PvZ-EG8fzVIG0fZ7ue-6" target="g6PvZ-EG8fzVIG0fZ7ue-2">
          <mxGeometry relative="1" as="geometry">
            <mxPoint x="1040" y="-80" as="targetPoint" />
            <Array as="points">
              <mxPoint x="300" y="313" />
              <mxPoint x="300" y="321" />
              <mxPoint x="200" y="321" />
              <mxPoint x="200" y="-120" />
              <mxPoint x="1000" y="-120" />
            </Array>
          </mxGeometry>
        </mxCell>
        <mxCell id="g6PvZ-EG8fzVIG0fZ7ue-6" value="&lt;p style=&quot;margin:0px;margin-top:4px;text-align:center;&quot;&gt;&lt;b&gt;Professor&lt;/b&gt;&lt;/p&gt;&lt;hr size=&quot;1&quot;&gt;&lt;p style=&quot;margin:0 0 0 4px;line-height:1.6;&quot;&gt;- titulacao: String&lt;br&gt;- curso: String&lt;br&gt;- disciplinas: List&amp;lt;Disciplina&amp;gt;&lt;/p&gt;&lt;hr size=&quot;1&quot;&gt;&lt;p style=&quot;margin:0 0 0 4px;line-height:1.6;&quot;&gt;+ imprimir(): void&lt;/p&gt;" style="verticalAlign=top;align=left;overflow=fill;fontSize=14;fontFamily=Helvetica;html=1;rounded=0;shadow=0;comic=0;labelBackgroundColor=none;strokeWidth=1;" vertex="1" parent="1">
          <mxGeometry x="260" y="240" width="200" height="146" as="geometry" />
        </mxCell>
        <mxCell id="g6PvZ-EG8fzVIG0fZ7ue-7" value="" style="html=1;rounded=1;edgeStyle=orthogonalEdgeStyle;dashed=0;startArrow=none;endArrow=block;endSize=12;strokeColor=#000082;entryX=0.474;entryY=0.903;entryDx=0;entryDy=0;entryPerimeter=0;" edge="1" parent="1" source="g6PvZ-EG8fzVIG0fZ7ue-1">
          <mxGeometry width="50" height="50" relative="1" as="geometry">
            <Array as="points">
              <mxPoint x="680" y="200" />
              <mxPoint x="520" y="200" />
            </Array>
            <mxPoint x="635.4999999999999" y="277.98000000000013" as="sourcePoint" />
            <mxPoint x="520.014" y="119.99799999999992" as="targetPoint" />
          </mxGeometry>
        </mxCell>
        <mxCell id="g6PvZ-EG8fzVIG0fZ7ue-8" value="" style="html=1;rounded=1;edgeStyle=orthogonalEdgeStyle;dashed=0;startArrow=none;endArrow=block;endSize=12;strokeColor=#000082;exitX=0.5;exitY=0;exitDx=0;exitDy=0;" edge="1" parent="1" source="g6PvZ-EG8fzVIG0fZ7ue-6">
          <mxGeometry width="50" height="50" relative="1" as="geometry">
            <Array as="points">
              <mxPoint x="400" y="200" />
              <mxPoint x="520" y="200" />
              <mxPoint x="520" y="120" />
            </Array>
            <mxPoint x="569" y="433" as="sourcePoint" />
            <mxPoint x="520" y="120" as="targetPoint" />
          </mxGeometry>
        </mxCell>
        <mxCell id="aM2yHVIO1wzhIdyGh7mq-2" style="edgeStyle=orthogonalEdgeStyle;rounded=0;orthogonalLoop=1;jettySize=auto;html=1;exitX=0.5;exitY=1;exitDx=0;exitDy=0;" edge="1" parent="1" source="g6PvZ-EG8fzVIG0fZ7ue-2" target="g6PvZ-EG8fzVIG0fZ7ue-2">
          <mxGeometry relative="1" as="geometry" />
        </mxCell>
        <mxCell id="aM2yHVIO1wzhIdyGh7mq-13" style="edgeStyle=orthogonalEdgeStyle;rounded=0;orthogonalLoop=1;jettySize=auto;html=1;exitX=1;exitY=0.5;exitDx=0;exitDy=0;entryX=-0.001;entryY=0.561;entryDx=0;entryDy=0;entryPerimeter=0;endArrow=none;endFill=0;" edge="1" parent="1" source="g6PvZ-EG8fzVIG0fZ7ue-1" target="g6PvZ-EG8fzVIG0fZ7ue-2">
          <mxGeometry relative="1" as="geometry" />
        </mxCell>
        <mxCell id="aM2yHVIO1wzhIdyGh7mq-14" value="0..*" style="text;html=1;align=center;verticalAlign=middle;resizable=0;points=[];autosize=1;strokeColor=none;fillColor=none;" vertex="1" parent="1">
          <mxGeometry x="680" y="366" width="40" height="30" as="geometry" />
        </mxCell>
        <mxCell id="aM2yHVIO1wzhIdyGh7mq-15" value="1..*" style="text;html=1;align=center;verticalAlign=middle;resizable=0;points=[];autosize=1;strokeColor=none;fillColor=none;" vertex="1" parent="1">
          <mxGeometry x="770" y="273" width="40" height="30" as="geometry" />
        </mxCell>
        <mxCell id="aM2yHVIO1wzhIdyGh7mq-16" value="1" style="text;html=1;align=center;verticalAlign=middle;resizable=0;points=[];autosize=1;strokeColor=none;fillColor=none;" vertex="1" parent="1">
          <mxGeometry x="810" y="272" width="30" height="30" as="geometry" />
        </mxCell>
        <mxCell id="aM2yHVIO1wzhIdyGh7mq-17" value="1..*" style="text;html=1;align=center;verticalAlign=middle;resizable=0;points=[];autosize=1;strokeColor=none;fillColor=none;" vertex="1" parent="1">
          <mxGeometry x="220" y="288" width="40" height="30" as="geometry" />
        </mxCell>
        <mxCell id="aM2yHVIO1wzhIdyGh7mq-18" value="1" style="text;html=1;align=center;verticalAlign=middle;resizable=0;points=[];autosize=1;strokeColor=none;fillColor=none;" vertex="1" parent="1">
          <mxGeometry x="1000" y="-70" width="30" height="30" as="geometry" />
        </mxCell>
        <mxCell id="aM2yHVIO1wzhIdyGh7mq-19" value="1" style="text;html=1;align=center;verticalAlign=middle;resizable=0;points=[];autosize=1;strokeColor=none;fillColor=none;" vertex="1" parent="1">
          <mxGeometry x="1000" y="570" width="30" height="30" as="geometry" />
        </mxCell>
        <mxCell id="aM2yHVIO1wzhIdyGh7mq-20" value="0..*" style="text;html=1;align=center;verticalAlign=middle;resizable=0;points=[];autosize=1;strokeColor=none;fillColor=none;" vertex="1" parent="1">
          <mxGeometry x="602.5" y="485" width="40" height="30" as="geometry" />
        </mxCell>
        <mxCell id="aM2yHVIO1wzhIdyGh7mq-21" value="1..*" style="text;html=1;align=center;verticalAlign=middle;resizable=0;points=[];autosize=1;strokeColor=none;fillColor=none;" vertex="1" parent="1">
          <mxGeometry x="402.5" y="490" width="40" height="30" as="geometry" />
        </mxCell>
        <mxCell id="aM2yHVIO1wzhIdyGh7mq-25" value="1..*" style="text;html=1;align=center;verticalAlign=middle;resizable=0;points=[];autosize=1;strokeColor=none;fillColor=none;" vertex="1" parent="1">
          <mxGeometry x="520" y="600" width="40" height="30" as="geometry" />
        </mxCell>
        <mxCell id="aM2yHVIO1wzhIdyGh7mq-27" value="1" style="text;html=1;align=center;verticalAlign=middle;resizable=0;points=[];autosize=1;strokeColor=none;fillColor=none;" vertex="1" parent="1">
          <mxGeometry x="360" y="386" width="30" height="30" as="geometry" />
        </mxCell>
      </root>
    </mxGraphModel>
  </diagram>
</mxfile>
